<svg id="Layer_1" height="512" viewBox="0 0 512 512" width="512" xmlns="http://www.w3.org/2000/svg" data-name="Layer 1"><g><rect fill="#64b5f6" height="367.517" rx="14.459" width="440.076" x="9.001" y="29.336"/><path d="m23.46 29.336h411.158c7.953 0 14.459 6.506 14.459 14.459v5.541h-405.617c-7.953 0-14.459 6.506-14.459 14.459v333.058h-5.541c-7.953 0-14.459-6.506-14.459-14.459v-338.599c0-7.953 6.506-14.459 14.459-14.459z" fill="#42a5f5" fill-rule="evenodd"/></g><g><path d="m398.674 162.169c10.681 0 19.419 8.739 19.419 19.42v63.012c0 10.681-8.738 19.419-19.419 19.419 10.681 0 19.419 8.738 19.419 19.419v63.011c0 10.681-8.738 19.42-19.419 19.42h-339.271c-10.681 0-19.419-8.738-19.419-19.42v-63.011c0-10.681 8.739-19.419 19.419-19.419-10.681 0-19.419-8.739-19.419-19.419v-63.012c0-10.681 8.739-19.42 19.419-19.42-10.681 0-19.419-8.738-19.419-19.42v-63.012c0-10.681 8.739-19.419 19.419-19.419h339.271c10.681 0 19.419 8.738 19.419 19.419v63.012c0 10.681-8.738 19.419-19.419 19.42z" fill="#004960" fill-rule="evenodd"/><path d="m398.674 162.169c10.681 0 19.419 8.739 19.419 19.42v63.012c0 10.681-8.738 19.419-19.419 19.419 10.681 0 19.419 8.738 19.419 19.419v63.011c0 10.681-8.738 19.42-19.419 19.42h-20.656c10.681 0 19.419-8.738 19.419-19.42v-63.011c0-10.681-8.738-19.419-19.419-19.419 10.681 0 19.419-8.739 19.419-19.419v-63.012c0-10.681-8.738-19.42-19.419-19.42 10.681 0 19.419-8.738 19.419-19.42v-63.012c0-10.681-8.738-19.419-19.419-19.419h20.656c10.681 0 19.419 8.738 19.419 19.419v63.012c0 10.681-8.738 19.419-19.419 19.42z" fill="#003d50" fill-rule="evenodd"/><rect fill="#003343" height="101.85" rx="19.419" width="378.11" x="39.984" y="162.17"/><g fill-rule="evenodd"><path d="m378.018 264.02h20.656c10.681 0 19.419-8.739 19.419-19.419v-63.012c0-10.681-8.738-19.42-19.419-19.42h-20.656c10.681 0 19.419 8.739 19.419 19.42v63.012c0 10.681-8.738 19.419-19.419 19.419z" fill="#002a38"/><path d="m366.977 102.982c4.563 0 8.262 3.699 8.262 8.262s-3.699 8.262-8.262 8.262h-109.284c-4.563 0-8.262-3.699-8.262-8.262s3.7-8.262 8.262-8.262zm0 101.85c4.563 0 8.262 3.699 8.262 8.262s-3.699 8.262-8.262 8.262h-109.284c-4.563 0-8.262-3.699-8.262-8.262s3.7-8.262 8.262-8.262zm0 101.851c4.563 0 8.262 3.699 8.262 8.262s-3.699 8.262-8.262 8.262h-109.284c-4.563 0-8.262-3.699-8.262-8.262s3.7-8.262 8.262-8.262z" fill="#eff4f7"/><path d="m87.497 96.737c8.012 0 14.507 6.495 14.507 14.507s-6.495 14.507-14.507 14.507-14.507-6.495-14.507-14.507 6.495-14.507 14.507-14.507zm0 130.865c8.012 0 14.507-6.495 14.507-14.507s-6.495-14.507-14.507-14.507-14.507 6.495-14.507 14.507 6.495 14.507 14.507 14.507zm0 72.836c8.012 0 14.507 6.495 14.507 14.507s-6.495 14.507-14.507 14.507-14.507-6.495-14.507-14.507 6.495-14.507 14.507-14.507z" fill="#fc685b"/><path d="m87.497 96.737c5.87 0 10.925 3.486 13.209 8.5-2.218-1.375-4.834-2.17-7.635-2.17-8.012 0-14.507 6.495-14.507 14.507 0 2.143.465 4.177 1.299 6.007-4.124-2.558-6.872-7.126-6.872-12.337 0-8.012 6.495-14.507 14.507-14.507zm13.208 110.351c-2.284-5.014-7.339-8.5-13.209-8.5-8.012 0-14.507 6.495-14.507 14.507 0 5.21 2.748 9.779 6.872 12.337-.834-1.83-1.299-3.864-1.299-6.007 0-8.012 6.495-14.507 14.507-14.507 2.802 0 5.418.795 7.635 2.17zm-13.208 93.35c5.87 0 10.925 3.486 13.209 8.5-2.218-1.376-4.834-2.171-7.635-2.171-8.012 0-14.507 6.495-14.507 14.507 0 2.143.465 4.177 1.299 6.007-4.124-2.558-6.872-7.126-6.872-12.337 0-8.012 6.495-14.507 14.507-14.507z" fill="#fb4737"/><path d="m141.141 300.438c8.012 0 14.507 6.495 14.507 14.507s-6.495 14.507-14.507 14.507-14.507-6.495-14.507-14.507 6.495-14.507 14.507-14.507zm0-72.836c8.012 0 14.507-6.495 14.507-14.507s-6.495-14.507-14.507-14.507-14.507 6.495-14.507 14.507 6.495 14.507 14.507 14.507zm0-130.865c8.012 0 14.507 6.495 14.507 14.507s-6.495 14.507-14.507 14.507-14.507-6.495-14.507-14.507 6.495-14.507 14.507-14.507z" fill="#ffda2d"/><path d="m141.141 300.438c5.87 0 10.925 3.486 13.209 8.5-2.218-1.376-4.833-2.171-7.635-2.171-8.012 0-14.507 6.495-14.507 14.507 0 2.143.465 4.177 1.299 6.007-4.125-2.558-6.872-7.126-6.872-12.337 0-8.012 6.495-14.507 14.507-14.507zm13.209-93.35c-2.284-5.014-7.339-8.5-13.209-8.5-8.012 0-14.507 6.495-14.507 14.507 0 5.21 2.747 9.778 6.872 12.336-.834-1.831-1.299-3.864-1.299-6.007 0-8.012 6.495-14.507 14.507-14.507 2.802 0 5.418.795 7.635 2.17zm-13.209-110.351c5.869 0 10.924 3.486 13.209 8.5-2.218-1.376-4.833-2.17-7.635-2.17-8.012 0-14.507 6.495-14.507 14.507 0 2.143.465 4.177 1.299 6.007-4.125-2.558-6.872-7.126-6.872-12.337 0-8.012 6.495-14.507 14.507-14.507z" fill="#ffc700"/><path d="m194.786 300.438c8.012 0 14.507 6.495 14.507 14.507s-6.495 14.507-14.507 14.507-14.507-6.495-14.507-14.507 6.495-14.507 14.507-14.507zm0-72.836c8.012 0 14.507-6.495 14.507-14.507s-6.495-14.507-14.507-14.507-14.507 6.495-14.507 14.507 6.495 14.507 14.507 14.507zm0-130.865c8.012 0 14.507 6.495 14.507 14.507s-6.495 14.507-14.507 14.507-14.507-6.495-14.507-14.507 6.495-14.507 14.507-14.507z" fill="#72d561"/><path d="m194.786 300.438c5.869 0 10.924 3.485 13.208 8.5-2.218-1.375-4.833-2.17-7.635-2.17-8.012 0-14.507 6.495-14.507 14.507 0 2.143.465 4.177 1.299 6.007-4.125-2.558-6.872-7.126-6.872-12.337 0-8.012 6.495-14.507 14.507-14.507zm13.208-93.35c-2.284-5.014-7.339-8.5-13.208-8.5-8.012 0-14.507 6.495-14.507 14.507 0 5.21 2.748 9.778 6.872 12.336-.834-1.83-1.299-3.864-1.299-6.007 0-8.012 6.495-14.507 14.507-14.507 2.802 0 5.417.795 7.635 2.17zm-13.208-110.351c5.869 0 10.924 3.486 13.208 8.5-2.218-1.375-4.833-2.17-7.635-2.17-8.012 0-14.507 6.495-14.507 14.507 0 2.143.465 4.176 1.299 6.007-4.125-2.558-6.872-7.126-6.872-12.337 0-8.012 6.495-14.507 14.507-14.507z" fill="#42c345"/></g></g><g fill-rule="evenodd"><path d="m502.999 440.279c0 23.408-56.097 42.385-125.295 42.385s-125.295-18.977-125.295-42.385v-205.084c0-23.409 56.097-42.385 125.295-42.385s125.295 18.977 125.295 42.385z" fill="#b4d2d7"/><path d="m502.999 440.278c0 23.409-56.097 42.386-125.295 42.386-3.39 0-6.748-.047-10.07-.136 64.489-1.735 115.224-19.987 115.224-42.249v-205.084c0-22.262-50.736-40.514-115.224-42.249 3.322-.089 6.68-.136 10.07-.136 69.198 0 125.295 18.977 125.295 42.385v205.084z" fill="#9bb9c3"/><path d="m252.409 371.917c0 23.409 56.097 42.386 125.295 42.386s125.295-18.976 125.295-42.386v-68.361c0 23.408-56.097 42.386-125.295 42.386s-125.295-18.977-125.295-42.386z" fill="#9bb9c3"/><path d="m482.859 394.969c12.737-6.636 20.141-14.55 20.141-23.052v-68.361c0 8.501-7.404 16.416-20.141 23.051z" fill="#82a3ad"/><path d="m387.398 302.968c4.856 0 8.793 3.937 8.793 8.793s-3.937 8.793-8.793 8.793h-19.389c-4.856 0-8.793-3.937-8.793-8.793s3.937-8.793 8.793-8.793zm3.247 136.721c4.856 0 8.793 3.937 8.793 8.793s-3.937 8.793-8.793 8.793h-19.389c-4.856 0-8.793-3.937-8.793-8.793s3.937-8.793 8.793-8.793zm-3.247-68.361c4.856 0 8.793 3.937 8.793 8.793s-3.937 8.793-8.793 8.793h-19.389c-4.856 0-8.793-3.937-8.793-8.793s3.937-8.793 8.793-8.793z" fill="#ffda2d"/><path d="m377.704 277.58c69.011 0 125.295-19.04 125.295-42.385s-56.285-42.385-125.295-42.385-125.295 19.04-125.295 42.385 56.285 42.385 125.295 42.385z" fill="#9bb9c3"/><path d="m377.704 192.809c69.198 0 125.295 18.977 125.295 42.385 0 8.501-7.404 16.416-20.141 23.051v-23.051c0-22.262-50.736-40.514-115.225-42.249 3.323-.089 6.68-.136 10.07-.136z" fill="#82a3ad"/></g></svg>