<svg id="Layer_1" viewBox="0 0 512 512" xmlns="http://www.w3.org/2000/svg" data-name="Layer 1"><path d="m159.738 342.31h89.355v90.871h-89.355z" fill="#2c3947"/><path d="m111.243 451.191h186.345v-11.6c0-7.461-7.548-13.552-16.787-13.552h-152.742c-9.239 0-16.816 6.091-16.816 13.552z" fill="#3f5163" fill-rule="evenodd"/><path d="m408.86 352.831c0 9.763-7.753 17.777-17.195 17.777h-374.465c-9.476 0-17.2-8.014-17.2-17.777v-248.331c0-9.764 7.724-17.749 17.2-17.749h374.47c9.442 0 17.195 7.985 17.195 17.749v248.331z" fill="#8dd1fe" fill-rule="evenodd"/><path d="m159.738 342.31h89.355v42.404h-89.355z" fill="#1c2630"/><path d="m391.665 370.608h-374.465c-9.476 0-17.2-8.014-17.2-17.777v-25.705h408.86v25.705c0 9.763-7.753 17.777-17.195 17.777z" fill="#3f5163" fill-rule="evenodd"/><path d="m221.96 239.344h36.634v59.628h-36.634z" fill="#fb4455"/><path d="m281.442 167.68h36.663v131.293h-36.663z" fill="#ffc90d"/><path d="m340.926 205.1h36.663v93.872h-36.663z" fill="#2eb851"/><path d="m65.108 130.4a53.014 53.014 0 1 1 0 74.988 53.016 53.016 0 0 1 0-74.988z" fill="#2eb851" fill-rule="evenodd"/><path d="m140.066 130.4a53.014 53.014 0 1 1 -74.958 74.988z" fill="#ffc90d" fill-rule="evenodd"/><path d="m108.386 115.191a53.034 53.034 0 0 1 46.893 46.893l-52.692 5.8z" fill="#fb4455" fill-rule="evenodd"/><path d="m28.5 306.171a7.2 7.2 0 1 1 0-14.4h6.761a7.2 7.2 0 1 1 0 14.4zm23.14 0a7.2 7.2 0 0 1 0-14.4h125.03a7.2 7.2 0 1 1 0 14.4zm-23.14-52.109a7.2 7.2 0 1 1 0-14.4h6.761a7.2 7.2 0 1 1 0 14.4zm23.14 0a7.2 7.2 0 0 1 0-14.4h125.03a7.2 7.2 0 1 1 0 14.4zm-23.14 26.055a7.2 7.2 0 1 1 0-14.4h6.761a7.2 7.2 0 1 1 0 14.4zm23.14 0a7.2 7.2 0 0 1 0-14.4h125.03a7.2 7.2 0 1 1 0 14.4z" fill="#3f5163"/><path d="m198.208 151.126a7.176 7.176 0 1 1 9.763-10.521l32.116 29.785 54.613-54.353a7.216 7.216 0 0 1 9.734-.379l54.091 44.036 84.284-92.707a7.19 7.19 0 0 1 10.638 9.676l-88.86 97.72h-.029a7.158 7.158 0 0 1 -9.821.728l-54.5-44.357-54.733 54.5a7.146 7.146 0 0 1 -10.113.35z" fill="#3f5163"/><g fill-rule="evenodd"><path d="m240.263 191.373a11.031 11.031 0 1 0 -11.017-11.016 11.051 11.051 0 0 0 11.017 11.016z" fill="#ffab02"/><path d="m299.774 132.153a11.031 11.031 0 1 0 -11.045-11.046 11.051 11.051 0 0 0 11.045 11.046z" fill="#2eb851"/><path d="m359.257 180.59a11.031 11.031 0 1 0 -11.017-11.045 11.057 11.057 0 0 0 11.017 11.045z" fill="#fb4455"/><path d="m448.117 82.871a11.031 11.031 0 1 0 -11.017-11.046 11.057 11.057 0 0 0 11.017 11.046z" fill="#ffab02"/><path d="m512 348.867c-79.767-88.889-145.515-88.889-225.282 0 79.767 88.889 145.515 88.889 225.282 0z" fill="#ffab02"/><path d="m445.289 348.867a45.931 45.931 0 1 1 -45.93-45.931 45.946 45.946 0 0 1 45.93 45.931z" fill="#d5e3f2"/><path d="m422.382 348.867a23.038 23.038 0 1 1 -23.023-23.053 23.035 23.035 0 0 1 23.023 23.053z" fill="#ffab02"/><path d="m390.587 282.623a87.061 87.061 0 0 1 18.273.087v-157l-18.273 20.08z" fill="#72bff2"/><path d="m390.587 124.43 18.273-20.08c-.088-9.7-7.811-17.6-17.195-17.6h-18.274c9.473 0 17.2 7.985 17.2 17.749v19.931z" fill="#72bff2"/><path d="m359.082 291.191h-18.156v7.782h3.235a138.227 138.227 0 0 1 14.921-7.782z" fill="#1ca63e"/><path d="m368.5 205.1v82.39c3.061-1.049 6.063-1.923 9.093-2.652v-79.738z" fill="#1ca63e"/><path d="m308.692 167.68v123.191h-27.25v8.102h36.664v-131.293z" fill="#e8b603"/><path d="m249.209 239.344v51.527h-27.249v8.102h36.634v-59.629z" fill="#e82e41"/><path d="m144.117 163.308a52.99 52.99 0 0 1 -47.184 57.3 53.005 53.005 0 0 0 58.346-58.521z" fill="#e8b603"/><path d="m144.117 163.308 11.162-1.224a53.034 53.034 0 0 0 -46.893-46.893l-.262 2.419a52.71 52.71 0 0 1 20.663 12.79 50.971 50.971 0 0 1 5.213 6.066 52.606 52.606 0 0 1 10.113 26.842z" fill="#e82e41"/><path d="m408.86 285.771c28.094 7.9 56.685 28.91 87.344 63.1-36.984 41.209-70.965 63.33-104.743 66.3 39.023 3.439 77.756-18.652 120.539-66.3-36.43-40.6-69.916-62.63-103.14-66.157a88.977 88.977 0 0 0 -17.4-.174 96.515 96.515 0 0 1 17.4 3.235z" fill="#ed9e00"/><path d="m413.668 348.867a23.05 23.05 0 0 1 -18.681 22.616 23.936 23.936 0 0 0 4.372.408 23.049 23.049 0 0 0 9.5-44.037c-.612-.262-1.224-.524-1.865-.728a22.821 22.821 0 0 0 -7.636-1.312 23.936 23.936 0 0 0 -4.372.408 24.469 24.469 0 0 1 3.264.9 22.987 22.987 0 0 1 15.417 21.741z" fill="#ed9e00"/></g></svg>